<?xml version="1.0" encoding="utf-8"?>
<!-- Generator: Adobe Illustrator 15.1.0, SVG Export Plug-In . SVG Version: 6.00 Build 0)  -->
<!DOCTYPE svg PUBLIC "-//W3C//DTD SVG 1.1//EN" "http://www.w3.org/Graphics/SVG/1.1/DTD/svg11.dtd">
<svg version="1.1"
	 id="Layer_1" xmlns:rdf="http://www.w3.org/1999/02/22-rdf-syntax-ns#" xmlns:dc="http://purl.org/dc/elements/1.1/" xmlns:cc="http://creativecommons.org/ns#"
	 xmlns="http://www.w3.org/2000/svg" xmlns:xlink="http://www.w3.org/1999/xlink" x="0px" y="0px" width="553.226px"
	 height="136.601px" viewBox="0.657 1.348 553.226 136.601" enable-background="new 0.657 1.348 553.226 136.601"
	 xml:space="preserve">
<path fill="#FFFFFF" d="M181.063,1.349c-20.607-0.027-34.255,10.835-36.175,27.077c-0.712,5.977-1.384,11.257-1.384,11.257h268.131
	c0,0,0.504-3.957,0.896-7.133c2.016-16.362-4.937-31.199-30.224-31.199v0.002C382.309,1.353,191.927,1.36,181.063,1.349
	L181.063,1.349z M17.426,1.353L12.72,39.684h121.598l4.688-38.331L17.424,1.354L17.426,1.353z M425.604,1.353l-4.695,38.331h131.821
	c0,0,0.16-1.387,0.744-5.898c3.208-25.159-13.024-32.433-28.695-32.433H425.604L425.604,1.353z M419.092,54.278l-10.271,83.655
	l45.479-0.017l10.28-83.622L419.092,54.278L419.092,54.278z M505.49,54.278l-10.288,83.655l45.479-0.017l10.28-83.622L505.49,54.278
	L505.49,54.278z M10.946,54.29l-10.29,83.646h121.59l4.48-36.288l-76.137-0.008l1.926-15.647h76.107l3.896-31.701H10.953
	L10.946,54.29z M141.72,54.29c-3.336,21.831,7.592,31.7,23.08,31.7c8.424,0,61.519-0.023,61.519-0.023l-1.92,15.672l-88.487,0.008
	l-4.456,36.287c0,0,96.334,0.032,100.238,0c3.224-0.231,25.759-0.848,33.431-19.279c2.488-5.984,4.688-27.439,5.304-31.943
	c3.544-26.16-14.568-32.397-28.832-32.397C233.735,54.314,157.248,54.29,141.72,54.29z M283.27,54.29l-10.271,83.646h45.455
	l6.4-51.943h57.095c16.191,0,24.896-8.705,26.512-20.396c0.815-5.898,1.399-11.305,1.399-11.305H283.27V54.29z"/>
</svg>
