<?xml version="1.0" encoding="utf-8"?>
<!-- Generator: Adobe Illustrator 15.1.0, SVG Export Plug-In . SVG Version: 6.00 Build 0)  -->
<!DOCTYPE svg PUBLIC "-//W3C//DTD SVG 1.1//EN" "http://www.w3.org/Graphics/SVG/1.1/DTD/svg11.dtd">
<svg version="1.1" id="Layer_1" xmlns="http://www.w3.org/2000/svg" xmlns:xlink="http://www.w3.org/1999/xlink" x="0px" y="0px"
	 width="167.487px" height="167.483px" viewBox="215.253 -374.742 167.487 167.483"
	 enable-background="new 215.253 -374.742 167.487 167.483" xml:space="preserve">
<path fill="#FFFFFF" d="M298.995-374.737l0.001-0.004c-46.249,0-83.743,37.493-83.743,83.742c0,46.25,37.494,83.741,83.743,83.741
	c46.254,0,83.744-37.49,83.744-83.741C382.74-337.246,345.25-374.737,298.995-374.737z M337.4-253.962
	c-1.5,2.461-4.721,3.24-7.18,1.73c-19.662-12.01-44.414-14.73-73.564-8.07c-2.809,0.641-5.609-1.119-6.249-3.93
	c-0.643-2.811,1.11-5.61,3.926-6.25c31.899-7.288,59.263-4.15,81.337,9.34C338.13-259.632,338.91-256.421,337.4-253.962z
	 M347.65-276.763L347.65-276.763c-1.891,3.071-5.91,4.041-8.98,2.151c-22.51-13.837-56.822-17.843-83.447-9.761
	c-3.454,1.043-7.101-0.903-8.148-4.351c-1.04-3.453,0.907-7.093,4.354-8.143c30.413-9.228,68.222-4.758,94.072,11.127
	C348.57-283.849,349.54-279.829,347.65-276.763z M348.534-300.508h-0.005c-26.989-16.031-71.52-17.505-97.288-9.684
	c-4.138,1.255-8.514-1.081-9.768-5.219c-1.254-4.14,1.08-8.513,5.221-9.771c29.582-8.98,78.756-7.245,109.83,11.202
	c3.73,2.209,4.951,7.016,2.74,10.733C357.064-299.524,352.244-298.297,348.534-300.508z"/>
</svg>
