<?xml version="1.0" encoding="utf-8"?>
<!-- Generator: Adobe Illustrator 15.1.0, SVG Export Plug-In . SVG Version: 6.00 Build 0)  -->
<!DOCTYPE svg PUBLIC "-//W3C//DTD SVG 1.1//EN" "http://www.w3.org/Graphics/SVG/1.1/DTD/svg11.dtd">
<svg version="1.1" id="Layer_1" xmlns="http://www.w3.org/2000/svg" xmlns:xlink="http://www.w3.org/1999/xlink" x="0px" y="0px"
	 width="1000.104px" height="699.321px" viewBox="0 150.367 1000.104 699.321" enable-background="new 0 150.367 1000.104 699.321"
	 xml:space="preserve">
<path fill="#FFFFFF" d="M989.375,300.417c0,0-9.792-68.75-39.688-98.958c-37.916-39.688-80.416-39.896-99.896-42.188
	c-139.584-10.104-349.167-8.854-349.167-8.854s-209.583-1.25-349.167,8.854c-19.479,2.292-61.979,2.5-99.896,42.188
	c-29.896,30.208-39.688,98.958-39.688,98.958S1.875,381.042,0,461.771v75.625C1.875,618.125,11.875,698.75,11.875,698.75
	s9.688,68.75,39.688,98.958c37.917,39.688,87.812,38.438,110,42.604c78.438,7.5,330.208,9.271,338.958,9.375
	c0.104,0,209.792,0.312,349.375-9.792c19.479-2.291,61.979-2.5,99.896-42.188c29.896-30.208,39.688-98.958,39.688-98.958
	s10-80.729,10.625-161.354v-75.625C999.375,381.042,989.375,300.417,989.375,300.417z M398.75,639.688v-281.25l268.125,140.625
	L398.75,639.688z"/>
</svg>
