<?xml version="1.0" encoding="utf-8"?>
<!-- Generator: Adobe Illustrator 15.1.0, SVG Export Plug-In . SVG Version: 6.00 Build 0)  -->
<!DOCTYPE svg PUBLIC "-//W3C//DTD SVG 1.1//EN" "http://www.w3.org/Graphics/SVG/1.1/DTD/svg11.dtd">
<svg version="1.1" id="Layer_1" xmlns="http://www.w3.org/2000/svg" xmlns:xlink="http://www.w3.org/1999/xlink" x="0px" y="0px"
	 width="930.156px" height="1000px" viewBox="35.156 0 930.156 1000" enable-background="new 35.156 0 930.156 1000"
	 xml:space="preserve">
<path fill="#FFFFFF" d="M326.094,593.75c0,24.062,3.594,45.938,10.938,65.625c7.812,19.375,17.969,36.719,30.938,51.875
	s28.125,28.125,45.938,39.062c17.188,10.938,35.938,20,55.938,27.031c19.844,7.188,40.625,12.5,61.719,15.938
	c21.406,3.438,42.188,5.156,63.281,5.156c26.562,0,51.25-2.031,74.688-6.25c23.438-4.375,46.25-10.156,68.75-17.5
	s44.219-16.094,65.938-26.094c21.875-10,44.062-20.938,66.875-33.125v211.875c-25.469,12.5-50.469,22.969-75.469,32.031
	c-25,8.75-50,16.406-75.469,22.5c-25.469,6.25-51.25,10.938-77.656,13.75S589.062,1000,560.938,1000
	c-37.5,0-73.75-4.375-108.594-12.969s-67.5-20.938-98.125-37.188s-58.594-35.938-84.062-59.062
	c-25.625-23.125-47.344-49.219-65.625-78.125s-32.344-60.625-42.5-94.688c-9.844-34.062-14.844-70.312-14.844-108.75
	c0-41.094,5.625-80.156,16.875-117.5c11.406-37.5,27.5-71.562,48.75-102.812c21.094-31.25,46.875-59.062,77.344-83.281
	s64.688-44.062,102.812-59.375c-20.781,20.781-37.031,45.312-48.438,73.906c-11.719,28.438-19.062,57.031-22.344,85.625h355.938
	c0-35.938-3.594-67.188-10.938-94.062s-19.062-49.219-35.469-66.875c-16.25-17.812-37.188-31.25-62.969-40
	c-25.781-8.906-56.875-13.438-93.281-13.438c-42.969,0-85.938,6.25-128.906,19.219c-42.969,12.5-83.75,30.469-122.5,53.125
	c-38.75,22.969-74.375,50-106.875,80.938c-32.5,31.25-59.844,64.844-82.031,101.25c4.688-42.188,14.062-82.812,27.031-121.406
	S92.344,250,112.969,216.719c20.625-32.812,44.844-62.812,72.5-89.688s58.281-50,92.188-68.75S347.5,24.375,386.562,14.219
	C425.625,5.312,467.188,0,510.938,0c25.625,0,51.094,2.344,76.562,6.875c25.469,4.688,50.312,10.938,74.531,19.062
	C710.156,42.5,753.125,65.625,790.938,95c37.812,29.688,69.531,63.438,95.312,102.031s45.312,81.25,58.75,127.656
	s20.312,94.688,20.312,144.844V593.75H326.094L326.094,593.75z"/>
</svg>
