<?xml version="1.0" encoding="utf-8"?>
<!-- Generator: Adobe Illustrator 15.1.0, SVG Export Plug-In . SVG Version: 6.00 Build 0)  -->
<!DOCTYPE svg PUBLIC "-//W3C//DTD SVG 1.1//EN" "http://www.w3.org/Graphics/SVG/1.1/DTD/svg11.dtd">
<svg version="1.1"
	 id="svg2" xmlns:rdf="http://www.w3.org/1999/02/22-rdf-syntax-ns#" xmlns:dc="http://purl.org/dc/elements/1.1/" xmlns:cc="http://creativecommons.org/ns#" xmlns:svg="http://www.w3.org/2000/svg" inkscape:version="0.91 r13725" sodipodi:docname="Netflix icon.svg" xmlns:inkscape="http://www.inkscape.org/namespaces/inkscape" xmlns:sodipodi="http://sodipodi.sourceforge.net/DTD/sodipodi-0.dtd"
	 xmlns="http://www.w3.org/2000/svg" xmlns:xlink="http://www.w3.org/1999/xlink" x="0px" y="0px" width="121.76px"
	 height="221.017px" viewBox="112.038 52.408 121.76 221.017" enable-background="new 112.038 52.408 121.76 221.017"
	 xml:space="preserve">
<title  id="title5759">Netflix icon</title>
<sodipodi:namedview  bordercolor="#666666" pagecolor="#ffffff" borderopacity="1.0" inkscape:pageopacity="0.0" inkscape:pageshadow="2" inkscape:window-height="705" inkscape:window-x="-8" inkscape:document-units="px" inkscape:window-width="1366" inkscape:current-layer="layer1" showgrid="false" inkscape:zoom="0.70710678" inkscape:cy="222.84368" inkscape:window-y="-8" inkscape:window-maximized="1" fit-margin-top="0" fit-margin-left="0" fit-margin-right="0" fit-margin-bottom="0" id="base" inkscape:cx="133.94373">
	</sodipodi:namedview>
<path fill="#FFFFFF" d="M233.647,273.319c0.001-0.007,0.001-0.015,0.001-0.022c0.115-2.317,0.177-51.143,0.138-110.422
	l-0.073-110.321h-21.66h-21.66l-0.086,48.844l-0.086,48.822l0,0v0.022l-4.02-11.339c-0.736-2.077-1.427-4.026-2.166-6.114
	c-3.051-8.616-6.951-19.639-18.373-51.934v0c-0.49-1.386-0.647-1.83-0.782-2.211c-0.33-0.934-0.658-1.862-1.001-2.83
	c-4.242-11.993-7.842-22.166-8-22.605l-0.287-0.8h-21.777h-21.776h-0.001v61.989v48.443c0,60.739,0.06,110.493,0.132,110.565
	c0.073,0.073,3.834-0.281,8.358-0.789c4.525-0.506,10.778-1.137,13.896-1.4c4.782-0.402,19.061-1.32,20.714-1.331
	c0.481-0.003,0.512-2.485,0.582-46.774l0.074-46.715l0,0v-0.057l3.455,9.774c0.14,0.396,0.254,0.72,0.357,1.01
	c9.285,26.273,16.469,46.585,21.395,60.497v0.001c5.106,14.419,7.841,22.115,7.872,22.146c0.04,0.041,2.949,0.217,6.466,0.391
	c10.652,0.529,23.854,1.661,33.868,2.906c2.295,0.284,4.267,0.432,4.423,0.329c0.001,0,0.006,0,0.007-0.001l0,0
	c0-0.001,0.004-0.001,0.004-0.001C233.642,273.389,233.645,273.36,233.647,273.319z"/>
</svg>
